<?xml version="1.0" standalone="no"?>
<!DOCTYPE svg PUBLIC "-//W3C//DTD SVG 20010904//EN"
 "http://www.w3.org/TR/2001/REC-SVG-20010904/DTD/svg10.dtd">
<svg version="1.0" xmlns="http://www.w3.org/2000/svg"
 width="1366.000000pt" height="1366.000000pt" viewBox="0 0 1366.000000 1366.000000"
 preserveAspectRatio="xMidYMid meet">
<metadata>
Created by potrace 1.14, written by Peter Selinger 2001-2017
</metadata>
<g transform="translate(0.000000,1366.000000) scale(0.100000,-0.100000)"
fill="#000000" stroke="none">
<path d="M3754 8393 c-16 -12 -33 -47 -33 -69 -2 -141 0 -247 3 -297 3 -34 8
-98 11 -142 3 -44 8 -101 10 -127 3 -27 7 -69 10 -95 2 -27 7 -77 10 -113 l7
-65 -119 -80 c-247 -167 -404 -309 -541 -489 -99 -129 -142 -252 -142 -405 0
-103 17 -172 66 -268 45 -89 111 -153 200 -195 55 -26 80 -31 148 -33 192 -4
331 94 416 293 28 67 76 218 85 271 2 14 12 69 22 121 14 79 17 155 18 447 l0
353 28 11 c41 17 69 57 56 80 -10 19 -11 19 -49 -1 -22 -11 -41 -20 -43 -20
-2 0 -5 30 -6 66 -1 37 -4 85 -6 108 -16 160 -27 346 -29 488 -1 89 -5 141
-13 149 -14 14 -94 23 -109 12z m23 -1050 c5 -76 5 -435 0 -468 -3 -16 -9 -64
-12 -105 -27 -302 -146 -571 -287 -647 -53 -28 -163 -24 -219 9 -67 40 -117
96 -155 173 -63 133 -65 299 -4 439 76 177 305 410 605 614 33 22 62 39 64 36
2 -2 6 -25 8 -51z"/>
<path d="M7274 8393 c-16 -12 -33 -47 -33 -69 -1 -107 1 -248 3 -284 2 -25 7
-94 11 -155 4 -60 8 -112 10 -115 2 -3 6 -46 9 -95 4 -50 9 -113 11 -141 l5
-50 -128 -87 c-228 -155 -362 -273 -495 -437 -64 -78 -157 -230 -142 -230 2 0
-2 -15 -10 -33 -28 -68 -35 -221 -14 -312 54 -231 227 -379 433 -370 220 10
352 144 441 451 25 86 28 101 40 178 4 21 8 48 10 59 15 74 20 202 20 478 l0
315 42 27 c31 19 43 33 43 50 0 35 -9 38 -52 16 -22 -11 -41 -19 -43 -17 -1 2
-6 59 -9 128 -4 69 -9 141 -11 160 -9 88 -18 257 -19 377 -1 83 -6 137 -13
144 -14 14 -94 23 -109 12z m22 -1055 c13 -218 4 -511 -21 -648 -3 -14 -7 -41
-10 -60 -20 -125 -80 -288 -141 -380 -72 -109 -143 -151 -242 -146 -107 7
-198 78 -257 201 -55 114 -64 233 -30 367 38 148 180 331 405 520 69 58 283
208 289 202 2 -2 6 -28 7 -56z"/>
<path d="M4296 7979 c-27 -22 -34 -57 -14 -77 17 -17 79 -15 106 4 43 30 16
94 -40 94 -14 0 -37 -9 -52 -21z"/>
<path d="M6203 7921 c-37 -23 -46 -48 -45 -122 l1 -55 -76 -2 c-142 -4 -152
-20 -153 -220 0 -87 4 -162 10 -173 18 -32 66 -49 145 -52 41 -1 75 0 75 3 0
14 -68 44 -101 44 -66 2 -69 10 -69 177 0 143 1 149 23 163 12 9 36 14 52 13
19 -2 50 9 84 30 30 18 58 33 61 33 3 0 6 23 5 51 -1 32 4 56 13 65 17 17 8
16 122 18 94 2 139 -7 142 -28 1 -12 5 -60 7 -88 1 -22 107 -81 151 -83 19 -1
40 -3 47 -4 21 -2 28 -55 27 -192 -1 -149 -3 -153 -80 -155 -29 0 -49 -8 -68
-25 l-26 -25 68 3 c92 5 110 10 138 40 23 25 24 31 24 180 0 87 -5 163 -10
174 -18 32 -68 51 -144 53 l-71 1 -1 67 c-1 109 -30 128 -201 128 -99 0 -123
-3 -150 -19z"/>
<path d="M4692 7904 c-29 -20 -30 -69 -2 -84 46 -25 132 47 100 85 -16 19 -69
19 -98 -1z"/>
<path d="M6249 7859 c-47 -47 -6 -79 103 -79 91 0 128 13 128 46 0 38 -35 52
-129 52 -68 0 -86 -3 -102 -19z"/>
<path d="M6280 7755 c-168 -35 -268 -169 -224 -299 36 -105 156 -176 298 -176
90 0 138 14 204 57 127 85 144 237 39 336 -47 44 -121 77 -184 83 -32 3 -62 7
-68 8 -5 2 -35 -2 -65 -9z m150 -48 c97 -21 169 -91 176 -172 5 -57 -15 -103
-64 -146 -50 -44 -97 -62 -174 -65 -113 -4 -212 48 -249 131 -68 154 107 296
311 252z"/>
<path d="M6279 7667 c-148 -56 -171 -194 -45 -275 35 -23 52 -26 122 -27 71 0
85 3 122 27 56 38 77 72 77 129 0 58 -24 94 -84 127 -51 29 -141 38 -192 19z
m139 -76 c28 -15 52 -51 52 -77 0 -28 -51 -71 -94 -79 -66 -13 -141 42 -131
94 12 65 105 98 173 62z"/>
<path d="M7865 7706 c-64 -29 -113 -85 -159 -177 -107 -218 -122 -524 -27
-537 39 -6 64 5 111 50 48 45 130 150 130 166 0 5 7 15 15 22 12 10 15 10 15
-1 0 -7 10 -48 22 -92 17 -64 29 -88 59 -118 35 -35 43 -38 76 -33 77 12 143
79 247 252 40 66 52 77 42 38 -10 -40 -20 -157 -21 -236 l0 -75 42 -3 c55 -4
62 7 113 184 92 314 149 460 170 438 9 -10 20 -105 25 -239 14 -325 39 -410
116 -401 16 2 39 12 50 22 28 25 86 151 143 309 26 72 58 157 71 190 l24 60 1
-120 c1 -135 5 -174 26 -260 40 -163 130 -188 248 -69 27 27 64 73 84 102 19
28 35 52 36 52 1 0 1 -37 1 -83 1 -154 40 -224 129 -234 68 -8 157 39 250 130
92 90 144 163 214 301 14 28 16 29 26 11 6 -10 32 -50 58 -89 25 -39 44 -74
42 -78 -3 -4 -46 -29 -96 -55 -102 -54 -126 -80 -112 -121 27 -77 215 -126
337 -87 99 31 131 129 77 235 -12 23 -20 43 -18 44 2 2 23 16 48 33 137 92
274 285 218 305 -22 8 -37 -2 -53 -36 -8 -17 -29 -49 -46 -69 -34 -41 -191
-167 -208 -167 -6 0 -20 18 -31 41 -12 22 -40 71 -62 107 -58 95 -62 115 -31
152 18 22 45 36 96 51 99 30 117 48 83 82 -19 19 -104 6 -187 -28 -112 -45
-145 -83 -153 -173 -10 -123 -223 -420 -341 -476 -41 -20 -52 -15 -71 30 -24
58 -18 107 17 145 45 48 104 138 133 200 76 169 34 322 -84 306 -70 -9 -129
-74 -174 -192 -36 -96 -71 -169 -114 -240 -37 -62 -108 -145 -123 -145 -24 0
-46 105 -54 266 -3 55 -7 138 -10 187 -5 105 -14 124 -62 133 -57 11 -82 -4
-119 -71 -31 -55 -101 -219 -109 -255 -2 -8 -22 -67 -45 -130 -39 -111 -56
-145 -57 -118 -1 7 -4 85 -7 172 -12 337 -29 391 -125 391 -43 0 -55 -5 -84
-33 -19 -19 -45 -54 -58 -78 -29 -58 -39 -63 -29 -16 20 94 19 113 -1 133 -37
37 -128 21 -135 -25 -1 -7 -5 -37 -8 -68 -12 -99 -35 -155 -139 -330 -63 -108
-134 -198 -156 -198 -14 0 -33 55 -40 119 -11 92 -5 282 9 323 12 33 11 39
-14 82 -58 100 -150 135 -241 92z m49 -231 c-47 -130 -123 -296 -144 -319 -5
-5 -7 4 -5 20 1 16 6 60 10 97 8 81 45 201 81 263 32 54 94 110 104 94 4 -6
-17 -76 -46 -155z m1899 51 c0 -43 -8 -68 -39 -125 -21 -39 -49 -83 -61 -98
l-23 -28 5 45 c12 93 41 183 84 259 19 35 35 11 34 -53z m495 -439 c17 -49 15
-65 -13 -83 -46 -30 -204 -7 -193 28 4 10 168 87 188 88 4 0 11 -15 18 -33z"/>
<path d="M4248 7698 c-34 -12 -39 -29 -73 -258 -36 -240 -40 -431 -10 -493 50
-107 199 9 381 298 31 49 43 62 40 43 -5 -30 -19 -324 -20 -434 l-1 -72 -113
-150 c-193 -258 -229 -336 -220 -474 13 -168 143 -304 281 -292 106 10 153 77
173 247 11 102 12 117 19 232 12 210 14 271 16 389 l2 119 78 97 c43 53 109
146 148 205 39 59 71 105 72 103 0 -1 2 -22 4 -45 10 -119 41 -194 95 -230 89
-61 215 14 277 167 25 60 32 68 71 85 118 48 284 283 219 308 -19 7 -30 -2
-53 -43 -45 -82 -111 -156 -165 -185 l-26 -14 0 62 c0 187 -67 312 -171 320
-16 1 -30 6 -29 11 4 19 -33 17 -61 -3 -43 -30 -79 -88 -125 -202 -61 -149
-185 -350 -311 -504 l-24 -30 3 40 c2 22 6 92 9 155 6 120 15 250 21 310 2 19
7 74 11 122 l7 87 -41 11 c-48 12 -89 5 -101 -19 -5 -9 -12 -43 -16 -76 -11
-89 -10 -85 -55 -176 -45 -89 -169 -280 -221 -339 l-31 -35 5 170 c4 94 8 181
11 195 3 13 8 40 11 60 3 19 11 73 19 119 12 79 12 85 -5 102 -11 11 -25 19
-31 20 -7 0 -20 2 -28 3 -8 2 -27 -1 -42 -6z m1059 -170 c31 -15 60 -83 67
-154 6 -77 -2 -91 -42 -75 -78 33 -117 135 -87 230 6 20 17 20 62 -1z m3 -318
c41 0 44 -13 16 -69 -25 -48 -58 -81 -82 -81 -22 0 -54 84 -57 151 -2 35 -2
69 0 74 2 6 24 -8 48 -32 32 -31 54 -43 75 -43z m-746 -657 c-3 -149 -13 -373
-18 -403 -3 -14 -7 -43 -11 -65 -12 -84 -32 -115 -74 -115 -115 0 -193 201
-133 342 34 77 213 348 230 348 4 0 7 -48 6 -107z"/>
</g>
</svg>
