<svg xmlns="http://www.w3.org/2000/svg"  viewBox="0 0 24 24" width="3em" height="3em">
    <path fill="#7a878d" d="M 9.25 2 C 7.441406 2 5.832031 3.019531 5.035156 4.597656 C 4.628906 4.257813 4.136719 4 3.5 4 C 2.121094 4 1 5.121094 1 6.5 C 1 6.875 1.085938 7.238281 1.25 7.574219 C 0.476563 8.132813 0 9.035156 0 10 C 0 11.652344 1.347656 13 3 13 L 13 13 C 14.652344 13 16 11.652344 16 10 C 16 8.703125 15.175781 7.578125 13.980469 7.171875 C 13.992188 7.027344 14 6.886719 14 6.75 C 14 4.132813 11.867188 2 9.25 2 Z M 9.25 3 C 11.316406 3 13 4.683594 13 6.75 C 13 6.96875 12.976563 7.195313 12.929688 7.449219 L 12.832031 7.949219 L 13.335938 8.035156 C 14.300781 8.199219 15 9.027344 15 10 C 15 11.101563 14.101563 12 13 12 L 3 12 C 1.898438 12 1 11.101563 1 10 C 1 9.230469 1.453125 8.523438 2.15625 8.195313 L 2.730469 7.925781 L 2.335938 7.429688 C 2.113281 7.15625 2 6.835938 2 6.5 C 2 5.671875 2.671875 5 3.5 5 C 4.023438 5 4.414063 5.324219 4.835938 5.8125 L 5.421875 6.484375 L 5.691406 5.632813 C 6.1875 4.058594 7.613281 3 9.25 3 Z M 6 7 C 4.898438 7 4 7.898438 4 9 C 4 10.101563 4.898438 11 6 11 C 6.796875 11 7.34375 10.644531 7.667969 10.34375 C 7.445313 10.0625 7.265625 9.765625 7.117188 9.46875 C 6.949219 9.679688 6.597656 10 6 10 C 5.449219 10 5 9.550781 5 9 C 5 8.449219 5.449219 8 6 8 C 6.785156 8 7.164063 8.449219 7.554688 9.226563 C 7.992188 10.101563 8.625 11 10 11 C 11.101563 11 12 10.101563 12 9 C 12 7.898438 11.101563 7 10 7 C 9.210938 7 8.664063 7.351563 8.339844 7.652344 C 8.558594 7.933594 8.734375 8.234375 8.882813 8.53125 C 9.039063 8.332031 9.386719 8 10 8 C 10.550781 8 11 8.449219 11 9 C 11 9.550781 10.550781 10 10 10 C 9.214844 10 8.835938 9.550781 8.445313 8.773438 C 8.007813 7.898438 7.375 7 6 7 Z"/>
</svg>