<svg xmlns="http://www.w3.org/2000/svg"  viewBox="0 0 24 24" width="2em" height="2em">
    <path fill="#A4AFB2" d="M 4 5 C 2.898438 5 2 5.898438 2 7 L 2 17 C 2 18.101563 2.898438 19 4 19 L 20 19 C 21.101563 19 22 18.101563 22 17 L 22 7 C 22 5.898438 21.101563 5 20 5 L 16 5 C 14.898438 5 14 5.898438 14 7 L 10 7 C 10 5.898438 9.101563 5 8 5 Z M 4 7 L 8 7 L 8 9 L 16 9 L 16 7 L 20 7 L 20 17 L 4 17 Z M 8.5 10 C 7.121094 10 6 11.121094 6 12.5 C 6 13.878906 7.121094 15 8.5 15 C 9.878906 15 11 13.878906 11 12.5 C 11 11.121094 9.878906 10 8.5 10 Z M 15.5 10 C 14.121094 10 13 11.121094 13 12.5 C 13 13.878906 14.121094 15 15.5 15 C 16.878906 15 18 13.878906 18 12.5 C 18 11.121094 16.878906 10 15.5 10 Z"/>
</svg>