<svg xmlns="http://www.w3.org/2000/svg"  viewBox="0 0 50 50" width="2em" height="2em">
    <path fill="#A4AFB2" d="M 42.027344 23.035156 C 42.054688 22.699219 42.085938 22.371094 42.085938 22.035156 C 42.085938 14.832031 36.191406 9 28.929688 9 C 23.625 9 19.0625 12.125 16.984375 16.601563 C 15.890625 15.832031 14.550781 15.375 13.101563 15.375 C 9.390625 15.375 6.390625 18.355469 6.390625 22.035156 C 6.390625 22.585938 6.460938 23.121094 6.589844 23.632813 C 3.855469 25.109375 2 27.984375 2 31.285156 C 2 36.097656 5.9375 40 10.792969 40 L 39.203125 40 C 44.0625 40 48 36.097656 48 31.285156 C 48 27.449219 45.503906 24.203125 42.027344 23.035156 Z M 41.515625 30.464844 C 41.214844 33.625 39.003906 36.992188 33.699219 36.992188 C 29.691406 36.992188 25.878906 32.777344 24.214844 30.429688 C 24.210938 30.421875 21.105469 25.671875 17.667969 25.792969 C 14.304688 25.914063 13.421875 27.667969 13.269531 29.238281 C 13.117188 30.808594 14.023438 32.421875 15.472656 33.160156 C 17.285156 34.089844 19.550781 33.515625 21.839844 31.550781 L 24.085938 34.121094 C 21.875 36.027344 19.515625 37 17.277344 37.003906 C 16.105469 37.003906 14.960938 36.734375 13.894531 36.191406 C 11.1875 34.808594 9.5625 31.886719 9.851563 28.917969 C 10.152344 25.765625 12.363281 22.394531 17.667969 22.394531 C 22.402344 22.394531 25.726563 26.65625 26.804688 28.148438 C 28.597656 30.621094 31.726563 33.589844 33.699219 33.589844 C 37.0625 33.589844 37.945313 31.714844 38.097656 30.144531 C 38.25 28.574219 37.34375 26.964844 35.894531 26.222656 C 34.082031 25.300781 31.824219 25.867188 29.527344 27.835938 L 27.28125 25.257813 C 30.65625 22.363281 34.367188 21.613281 37.472656 23.199219 C 40.179688 24.582031 41.804688 27.496094 41.515625 30.464844 Z"/>
</svg>